<?xml version="1.0" ?><svg style="enable-background:new 0 0 24 24;" version="1.1" viewBox="0 0 24 24" xml:space="preserve" xmlns="http://www.w3.org/2000/svg" xmlns:xlink="http://www.w3.org/1999/xlink"><g id="Guides"/><g id="_x32_0"/><g id="_x31_9"/><g id="_x31_8"/><g id="_x31_7"/><g id="_x31_6"/><g id="_x31_5"/><g id="_x31_4"/><g id="_x31_3"/><g id="_x31_2"/><g id="_x31_1"/><g id="_x31_0"/><g id="_x30_9"/><g id="_x30_8"/><g id="_x30_7"/><g id="_x30_6"/><g id="_x30_5"/><g id="_x30_4"/><g id="_x30_3"/><g id="_x30_2"/><g id="_x30_1"><path d="M19.4297562,14.1657133l-2.8271484-0.5654297l-1.4990234-2.2485352l0.8447266-2.5356445   c0.0888672-0.2646484,0.0625-0.5532227-0.0712891-0.7978516c-0.1347656-0.2441406-0.3642578-0.4213867-0.6347656-0.4887695   l-3.7304688-0.9326172L8.7070999,3.7926662C8.5098343,3.594424,8.2373734,3.4933498,7.9551463,3.500674   c-0.28125,0.0126953-0.5429688,0.1430664-0.7236328,0.3588867l-5,6c-0.3007813,0.3608398-0.3095703,0.8828125-0.0205078,1.2539063   L7.4092479,17.79706c1.335938,1.7177734,3.3496099,2.7026367,5.5253911,2.7026367h5.8671875   c1.7636719,0,3.1982422-1.4345703,3.1982422-3.1982422C22.0000687,15.7824125,20.919014,14.4635649,19.4297562,14.1657133z    M18.8018265,18.4996967H12.934639c-1.5537109,0-2.9931641-0.7036133-3.9472656-1.9301758l-4.704102-6.0483389l0.5373535-0.6447144   l3.3981938,4.2477417c0.1982422,0.2470703,0.4882813,0.3754883,0.7822266,0.3754883   c0.21875,0,0.4394531-0.0717773,0.6240234-0.2192383c0.4306641-0.3447266,0.5009766-0.9741211,0.15625-1.4052734   L6.1277537,8.3082304L8.0674515,5.981143l2.2255859,2.2255859c0.1279297,0.128418,0.2890625,0.2192383,0.4648438,0.2631836   l2.9521484,0.737793l-0.6582031,1.9755859c-0.0976563,0.2929688-0.0546875,0.6142578,0.1162109,0.8710938l2,3   c0.1474609,0.2207031,0.3759766,0.3740234,0.6357422,0.4257813l3.2333984,0.6464834   c0.5576172,0.1118164,0.9628906,0.605957,0.9628906,1.1748047C20.0000687,17.9620991,19.4629593,18.4996967,18.8018265,18.4996967z   "/></g></svg>