<?xml version="1.0" ?><svg style="enable-background:new 0 0 24 24;" version="1.1" viewBox="0 0 24 24" xml:space="preserve" xmlns="http://www.w3.org/2000/svg" xmlns:xlink="http://www.w3.org/1999/xlink"><g id="Guides"/><g id="_x32_0"/><g id="_x31_9"/><g id="_x31_8"/><g id="_x31_7"/><g id="_x31_6"/><g id="_x31_5"/><g id="_x31_4"/><g id="_x31_3"/><g id="_x31_2"/><g id="_x31_1"/><g id="_x31_0"/><g id="_x30_9"/><g id="_x30_8"/><g id="_x30_7"/><g id="_x30_6"/><g id="_x30_5"/><g id="_x30_4"/><g id="_x30_3"/><g id="_x30_2"/><g id="_x30_1"><path d="M21.5977402,16.1984863l-3.9560547-2.9667969l-0.2543945-0.2389526   c1.2088013-2.9604492,0.5703125-6.3494263-1.7319336-8.6516724c-3.1191406-3.1191406-8.1953125-3.1191406-11.3144531,0   c-3.1181638,3.1191406-3.1181638,8.1953125,0,11.3144531c1.5429688,1.5439453,3.5771484,2.3505859,5.6425786,2.3505859   c1.0185547,0,2.0415039-0.2069702,3.0198364-0.6074829l0.2282104,0.2432251l2.9667969,3.9560547   c0.1738281,0.2324219,0.4394531,0.3769531,0.7285156,0.3974609c0.0244141,0.0019531,0.0478516,0.0029297,0.0712891,0.0029297   c0.2646484,0,0.5185547-0.1044922,0.7070313-0.2929688l4-4c0.2050781-0.2050781,0.3105469-0.4882813,0.2900391-0.7783203   C21.9746933,16.6379395,21.830162,16.3723145,21.5977402,16.1984863z M11.3272934,12.6854858   c-0.0377808-0.0463257-0.0802612-0.0892334-0.116272-0.1367798c-0.055542-0.0733643-0.1077881-0.1486206-0.1589966-0.2246704   c-0.0905762-0.1343384-0.1737671-0.2728271-0.2505493-0.4147339c-0.0432129-0.079895-0.0870361-0.1594238-0.1257324-0.2414551   c-0.072876-0.1542358-0.1342163-0.3134155-0.1908569-0.4743652c-0.0261841-0.0744019-0.0571899-0.1469727-0.079834-0.2225952   c-0.071228-0.2382202-0.1287842-0.4811401-0.1637573-0.7294312c0.2489624,0.0350342,0.4927368,0.0928345,0.7318726,0.1646729   c0.0712891,0.0213623,0.1395874,0.0507202,0.2097778,0.0751953c0.1685791,0.059082,0.335144,0.1236572,0.4967651,0.2008057   c0.0728149,0.0346069,0.1433716,0.0736084,0.2144775,0.1117554c0.1565552,0.0842896,0.3091431,0.1765137,0.4571533,0.277771   c0.0637207,0.0435791,0.1273193,0.0872192,0.1891479,0.1338501c0.0500488,0.0377808,0.0953369,0.083252,0.1442261,0.1229858   C12.3952255,11.9180908,11.9170151,12.3962402,11.3272934,12.6854858z M5.7549663,14.2414551   c-2.3388669-2.3398438-2.3388669-6.1464844,0-8.4863281c1.1699219-1.1689453,2.7060552-1.7539063,4.2431645-1.7539063   c1.5361328,0,3.0732422,0.5849609,4.2431641,1.7539063c1.5341797,1.5341797,2.0976563,3.7148438,1.5683594,5.7392578   l-1.3242188-1.2529297c-1.2363281-1.2363281-2.8769531-1.9609375-4.6201172-2.0419922L9.6010361,8.1871338L8.7183456,7.3044434   C8.7140732,7.2995605,8.7124863,7.2932129,8.7080917,7.2883301C8.658287,7.248291,8.6075058,7.1984863,8.5577011,7.1682129   C8.5070419,7.1341553,8.4557114,7.111084,8.404808,7.0917969c-0.0233765-0.010498-0.0458374-0.0193481-0.0698242-0.0279541   C8.2892685,7.0446777,8.2436142,7.026001,8.1983261,7.0178223C8.1532822,7.0087891,8.1090927,7.0140381,8.0642929,7.0111694   c-0.0358276-0.0023804-0.0696416-0.0067139-0.1054692-0.005249C7.8706889,7.0097046,7.7861552,7.0278931,7.7032084,7.0557251   C7.6168437,7.0825195,7.5395732,7.1271973,7.4616313,7.1779785C7.4046855,7.2142944,7.3405375,7.2411499,7.2881694,7.2883301   C7.2409892,7.3406982,7.2141337,7.4048462,7.1778178,7.461792C7.1350932,7.5273438,7.0894389,7.5896606,7.0636821,7.661499   C7.0182719,7.7695923,6.9981303,7.8834229,6.9981303,7.998291c0,0.1298828,0.0195313,0.2597656,0.0693359,0.3798828   C7.1280131,8.498291,7.1983256,8.607666,7.2881694,8.708252c0.005127,0.005127,0.0123291,0.0066528,0.0175171,0.0116577   l0.8813481,0.8813477L8.1993027,9.864502c0.0810547,1.7441406,0.8056641,3.3847656,2.0224609,4.6015625l1.2714844,1.34375   C9.4678574,16.3391113,7.2891459,15.7746582,5.7549663,14.2414551z M14.727623,16.3146973l-0.75-0.7998047   c-0.0273438-0.0292969-0.0566406-0.0566406-0.0869141-0.0830078l-1.1784058-1.2467651   c0.5905151-0.381958,1.0917358-0.8833618,1.4735107-1.473938l0.449585,0.4254761l0.7943726,0.7522583   c0.0263672,0.03125,0.0546875,0.0605469,0.0849609,0.0888672l0.7998047,0.75   c0.0263672,0.0253906,0.0546875,0.0488281,0.0839844,0.0703125l0.791748,0.5939941l-1.7983398,1.7983398l-0.5939941-0.791748   C14.7764511,16.3693848,14.7530136,16.3410645,14.727623,16.3146973z M17.1065292,19.4758301l-0.5192871-0.6921997   c0.0383301-0.0286255,0.0831299-0.0435181,0.1179199-0.0783081l2-2c0.03479-0.03479,0.0496826-0.0795898,0.0783081-0.1179199   l0.6921997,0.5192871L17.1065292,19.4758301z"/></g></svg>