<?xml version="1.0" ?><svg style="enable-background:new 0 0 24 24;" version="1.1" viewBox="0 0 24 24" xml:space="preserve" xmlns="http://www.w3.org/2000/svg" xmlns:xlink="http://www.w3.org/1999/xlink"><g id="Guides"/><g id="_x32_0"/><g id="_x31_9"/><g id="_x31_8"/><g id="_x31_7"/><g id="_x31_6"/><g id="_x31_5"/><g id="_x31_4"/><g id="_x31_3"/><g id="_x31_2"/><g id="_x31_1"/><g id="_x31_0"/><g id="_x30_9"/><g id="_x30_8"/><g id="_x30_7"/><g id="_x30_6"/><g id="_x30_5"/><g id="_x30_4"/><g id="_x30_3"/><g id="_x30_2"/><g id="_x30_1"><g><path d="M21.7070313,13.2929688c-0.390625-0.390625-1.0234375-0.390625-1.4140625,0L18.5859375,15H5.4140625l-1.7070313-1.7070313    c-0.390625-0.390625-1.0234375-0.390625-1.4140625,0s-0.390625,1.0234375,0,1.4140625l2,2C4.4804688,16.8945313,4.7348633,17,5,17    h14c0.2651367,0,0.5195313-0.1054688,0.7070313-0.2929688l2-2C22.0976563,14.3164063,22.0976563,13.6835938,21.7070313,13.2929688    z"/><path d="M6.2900391,18.2900391C6.1098633,18.4794922,6,18.7294922,6,19c0,0.1298828,0.0297852,0.2597656,0.0795898,0.3798828    C6.1298828,19.5,6.199707,19.609375,6.2900391,19.7099609C6.3896484,19.7998047,6.5,19.8701172,6.6196289,19.9199219    C6.7397461,19.9697266,6.8696289,20,7,20c0.1298828,0,0.2597656-0.0302734,0.3798828-0.0800781    s0.2299805-0.1201172,0.3300781-0.2099609C7.8999023,19.5195313,8,19.2695313,8,19    c0-0.2597656-0.1103516-0.5205078-0.2900391-0.7099609C7.3398438,17.9199219,6.659668,17.9199219,6.2900391,18.2900391z"/><path d="M17.2900391,18.2900391C17.1098633,18.4794922,17,18.7402344,17,19c0,0.2695313,0.0996094,0.5195313,0.2900391,0.7099609    c0.0996094,0.0898438,0.2099609,0.1601563,0.3295898,0.2099609C17.7397461,19.9697266,17.8696289,20,18,20    c0.1298828,0,0.2597656-0.0302734,0.3798828-0.0800781s0.2299805-0.1201172,0.3300781-0.2099609    c0.0898438-0.1005859,0.159668-0.2099609,0.2099609-0.3300781C18.9697266,19.2597656,19,19.1298828,19,19    c0-0.2597656-0.1103516-0.5205078-0.2900391-0.7099609C18.3398438,17.9199219,17.659668,17.9199219,17.2900391,18.2900391z"/><path d="M10,12h0.3818359l0.7236328,1.4472656C11.2807617,13.7978516,11.6337891,14,12.0009766,14    c0.1499023,0,0.3027344-0.0341797,0.4462891-0.1054688c0.4941406-0.2470703,0.6943359-0.8476563,0.4472656-1.3417969    L12.1181641,11l0.5-1H16c0.5522461,0,1-0.4472656,1-1c0-2.7568359-2.2431641-5-5-5S7,6.2431641,7,9    C7,10.6542969,8.3457031,12,10,12z M11.0349731,6.1733398C11.119812,6.6399536,11.5092163,7,12,7    c0.4945679,0,0.8867798-0.3654175,0.9671631-0.8373413C13.8331909,6.4588013,14.5231934,7.1383057,14.8286133,8H12    c-0.3789063,0-0.7250977,0.2138672-0.8945313,0.5527344L10.3818359,10H10c-0.5512695,0-1-0.4482422-1-1    C9,7.6851807,9.8555298,6.5775757,11.0349731,6.1733398z"/></g></g></svg>