<?xml version="1.0" ?><svg style="enable-background:new 0 0 24 24;" version="1.1" viewBox="0 0 24 24" xml:space="preserve" xmlns="http://www.w3.org/2000/svg" xmlns:xlink="http://www.w3.org/1999/xlink"><g id="Guides"/><g id="_x32_0"/><g id="_x31_9"/><g id="_x31_8"/><g id="_x31_7"/><g id="_x31_6"/><g id="_x31_5"/><g id="_x31_4"/><g id="_x31_3"/><g id="_x31_2"/><g id="_x31_1"/><g id="_x31_0"/><g id="_x30_9"/><g id="_x30_8"/><g id="_x30_7"/><g id="_x30_6"/><g id="_x30_5"/><g id="_x30_4"/><g id="_x30_3"/><g id="_x30_2"/><g id="_x30_1"><path d="M21.4665432,10.5129395L9.9391994,4.4104004l-1.265625-1.265625c-1.523438-1.5253906-4.0058599-1.5253906-5.5292969,0   c-1.5244141,1.5244141-1.5244141,4.0048828,0,5.5292969l1.2656248,1.265625l6.1025395,11.5273438   c0.1484375,0.2802734,0.4208984,0.4736328,0.7353516,0.5214844c0.0498047,0.0068359,0.0986328,0.0107422,0.1484375,0.0107422   c0.2636719,0,0.5185547-0.1035156,0.7070313-0.2929688l9.6025391-9.6025391   c0.2246094-0.2246094,0.3291016-0.5419922,0.2822266-0.8554688C21.940176,10.9338379,21.7468166,10.661377,21.4665432,10.5129395z    M4.5583396,4.5588379c0.3720703-0.3720703,0.8613281-0.5585938,1.3505859-0.5585938s0.9785156,0.1865234,1.3505859,0.5585938   L7.9245505,5.223877L5.2233787,7.9250488L4.5583396,7.2600098C3.8141992,6.5148926,3.8141992,5.3039551,4.5583396,4.5588379z    M11.6462307,19.3352051L6.4528708,9.5236816l0.0678101-0.0678101l5.4741826,6.6889038   c0.1972656,0.2421875,0.484375,0.3671875,0.7744141,0.3671875c0.2226563,0,0.4462891-0.0742188,0.6318359-0.2265625   c0.4277344-0.3496094,0.4912109-0.9794922,0.1416016-1.40625L7.9414573,8.0350952l0.0931401-0.0931396l6.8440552,5.6012573   c0.1855469,0.1513672,0.4091797,0.2255859,0.6318359,0.2255859c0.2900391,0,0.5771484-0.125,0.7744141-0.3671875   c0.3505859-0.4267578,0.2871094-1.0566406-0.140625-1.40625L9.4553738,6.5211792l0.0678101-0.0678101l9.8115234,5.1933594   L11.6462307,19.3352051z"/></g></svg>