<?xml version="1.0" ?><svg style="enable-background:new 0 0 24 24;" version="1.1" viewBox="0 0 24 24" xml:space="preserve" xmlns="http://www.w3.org/2000/svg" xmlns:xlink="http://www.w3.org/1999/xlink"><g id="Guides"/><g id="_x32_0"/><g id="_x31_9"/><g id="_x31_8"/><g id="_x31_7"/><g id="_x31_6"/><g id="_x31_5"/><g id="_x31_4"/><g id="_x31_3"/><g id="_x31_2"/><g id="_x31_1"/><g id="_x31_0"/><g id="_x30_9"/><g id="_x30_8"/><g id="_x30_7"/><g id="_x30_6"/><g id="_x30_5"/><g id="_x30_4"/><g id="_x30_3"/><g id="_x30_2"/><g id="_x30_1"><path d="M17,12h-0.5404663C17.4138184,10.9371948,18,9.5375366,18,8c0-3.3085938-2.6914063-6-6-6S6,4.6914063,6,8   c0,1.5375366,0.5861816,2.9371948,1.5404663,4H7c-0.5527344,0-1,0.4477539-1,1v2   c0,0.3344727,0.1669922,0.6464844,0.4453125,0.8320313l2.6787109,1.7856445l0.90625,3.625C10.1416016,21.6875,10.5410156,22,11,22   h2c0.4589844,0,0.8583984-0.3125,0.9697266-0.7573242l0.90625-3.625l2.6787109-1.7856445   C17.8330078,15.6464844,18,15.3344727,18,15v-2C18,12.4477539,17.5527344,12,17,12z M16,14.4648438l-2.5546875,1.703125   c-0.2070313,0.1381836-0.3554688,0.3481445-0.4150391,0.5893555L12.21875,20h-0.4375l-0.8115234-3.2426758   c-0.0595703-0.2412109-0.2080078-0.4511719-0.4150391-0.5893555L8,14.4648438V14h8V14.4648438z M12,12   c-2.2060547,0-4-1.7944336-4-4s1.7939453-4,4-4s4,1.7944336,4,4S14.2060547,12,12,12z"/></g></svg>