<?xml version="1.0" ?><svg style="enable-background:new 0 0 24 24;" version="1.1" viewBox="0 0 24 24" xml:space="preserve" xmlns="http://www.w3.org/2000/svg" xmlns:xlink="http://www.w3.org/1999/xlink"><g id="Guides"/><g id="_x32_0"/><g id="_x31_9"/><g id="_x31_8"/><g id="_x31_7"/><g id="_x31_6"/><g id="_x31_5"/><g id="_x31_4"/><g id="_x31_3"/><g id="_x31_2"/><g id="_x31_1"/><g id="_x31_0"/><g id="_x30_9"/><g id="_x30_8"/><g id="_x30_7"/><g id="_x30_6"/><g id="_x30_5"/><g id="_x30_4"/><g id="_x30_3"/><g id="_x30_2"/><g id="_x30_1"><path d="M22,14.5v-1c0-2.7568359-2.2431641-5-5-5h-3.5585938c-0.4311523,0-0.8125-0.2744141-0.9487305-0.6835938   l-1.5439453-4.6328125C10.8125,2.7753906,10.4306641,2.5,10,2.5H3c-0.5522461,0-1,0.4472656-1,1v11c0,1.6542969,1.3457031,3,3,3v2   H3c-0.5522461,0-1,0.4472656-1,1s0.4477539,1,1,1h17c0.2651367,0,0.5195313-0.1054688,0.7070313-0.2929688l1-1   c0.390625-0.390625,0.390625-1.0234375,0-1.4140625s-1.0234375-0.390625-1.4140625,0L19.5859375,19.5H19v-2   C20.6542969,17.5,22,16.1542969,22,14.5z M4,14.5v-10h5.2792969l1.315918,3.9492188   C11.0048828,9.6757813,12.1484375,10.5,13.4414063,10.5H17c1.6542969,0,3,1.3457031,3,3v1c0,0.5517578-0.4487305,1-1,1H5   C4.4487305,15.5,4,15.0517578,4,14.5z M7,17.5h5v2H7V17.5z M17,19.5h-3v-2h3V19.5z"/></g></svg>