<?xml version="1.0" ?><svg style="enable-background:new 0 0 24 24;" version="1.1" viewBox="0 0 24 24" xml:space="preserve" xmlns="http://www.w3.org/2000/svg" xmlns:xlink="http://www.w3.org/1999/xlink"><g id="Guides"/><g id="_x32_0"/><g id="_x31_9"/><g id="_x31_8"/><g id="_x31_7"/><g id="_x31_6"/><g id="_x31_5"/><g id="_x31_4"/><g id="_x31_3"/><g id="_x31_2"/><g id="_x31_1"/><g id="_x31_0"/><g id="_x30_9"/><g id="_x30_8"/><g id="_x30_7"/><g id="_x30_6"/><g id="_x30_5"/><g id="_x30_4"/><g id="_x30_3"/><g id="_x30_2"/><g id="_x30_1"><g><path d="M21.0830078,15.003418l-11.0563354-0.9213867l0.71698-2.1513672l9.355957-0.9355469    C20.6103516,10.9438477,21,10.5136719,21,10c0-4.4111328-3.5888672-8-8-8h-3c-4.4111328,0-8,3.5888672-8,8v7    c0,0.5522461,0.4477539,1,1,1h4.6495361l4.7259521,3.7807617c0.0455322,0.036499,0.1002808,0.0560303,0.1508789,0.0837402    c0.038269,0.0210571,0.0718384,0.0466309,0.112915,0.0626221C12.7541504,21.9719238,12.874939,22,13,22h8    c0.5527344,0,1-0.4477539,1-1v-5C22,15.4799805,21.6015625,15.046875,21.0830078,15.003418z M14,16.4200439l2,0.166626V20h-2    V16.4200439z M4,10c0-3.3085938,2.6914063-6,6-6h3c3.0029297,0,5.4980469,2.2177734,5.9326172,5.1015625l-9.0322266,0.9033203    c-0.3920898,0.0390625-0.7246094,0.3051758-0.8491211,0.6787109L7.2792969,16H4V10z M9.5917969,16.0527344L12,16.2533569    v2.6661377l-2.7441406-2.1953735L9.5917969,16.0527344z M20,20h-2v-3.2467041l2,0.166626V20z"/><path d="M6.7099609,12.2900391C6.659668,12.25,6.6098633,12.2099609,6.5600586,12.1699219    C6.5,12.1298828,6.4399414,12.0996094,6.3798828,12.0795898c-0.0600586-0.0297852-0.1201172-0.0498047-0.1801758-0.0595703    c-0.3300781-0.0600586-0.6699219,0.0400391-0.909668,0.2700195c-0.090332,0.0996094-0.1601563,0.199707-0.2104492,0.3295898    C5.0297852,12.7397461,5,12.8696289,5,13c0,0.2700195,0.1098633,0.5200195,0.2900391,0.7099609    C5.3896484,13.7998047,5.5,13.8696289,5.6196289,13.9199219C5.7397461,13.9697266,5.8696289,14,6,14    c0.0600586,0,0.1298828-0.0102539,0.199707-0.0200195c0.0600586-0.0102539,0.1201172-0.0302734,0.1801758-0.0600586    C6.4399414,13.8999023,6.5,13.8696289,6.5600586,13.8295898C6.6098633,13.7900391,6.659668,13.75,6.7099609,13.7099609    C6.75,13.659668,6.7998047,13.6098633,6.8295898,13.5600586C6.8696289,13.5,6.8999023,13.4399414,6.9199219,13.3798828    c0.0297852-0.0600586,0.0498047-0.1201172,0.0600586-0.1801758C6.9897461,13.1298828,7,13.0600586,7,13    c0-0.1303711-0.0200195-0.2602539-0.0800781-0.3803711C6.8696289,12.5,6.7998047,12.3896484,6.7099609,12.2900391z"/></g></g></svg>