<?xml version="1.0" ?><svg style="enable-background:new 0 0 24 24;" version="1.1" viewBox="0 0 24 24" xml:space="preserve" xmlns="http://www.w3.org/2000/svg" xmlns:xlink="http://www.w3.org/1999/xlink"><g id="Guides"/><g id="_x32_0"/><g id="_x31_9"/><g id="_x31_8"/><g id="_x31_7"/><g id="_x31_6"/><g id="_x31_5"/><g id="_x31_4"/><g id="_x31_3"/><g id="_x31_2"/><g id="_x31_1"/><g id="_x31_0"/><g id="_x30_9"/><g id="_x30_8"/><g id="_x30_7"/><g id="_x30_6"/><g id="_x30_5"/><g id="_x30_4"/><g id="_x30_3"/><g id="_x30_2"/><g id="_x30_1"><g><path d="M18,10.5c-0.5831299,0-1.133606,0.132019-1.633728,0.3573608l-1.1287231-1.4108887L16.5351563,7.5H18    c0.5522461,0,1-0.4477539,1-1s-0.4477539-1-1-1h-3c-0.5522461,0-1,0.4477539-1,1    c0,0.2862549,0.1234131,0.5405884,0.3162842,0.7228394L13.4648438,8.5H9c-0.3510742,0-0.6767578,0.184082-0.8574219,0.4853516    L7.125061,10.6809082C6.7658081,10.574646,6.3932495,10.5,6,10.5c-2.2055664,0-4,1.7944336-4,4s1.7944336,4,4,4    c1.8582764,0,3.4107056-1.2797241,3.8579712-3H12c0.4086914,0,0.7763672-0.2490234,0.9287109-0.628418l1.3625488-3.4069824    l0.5185547,0.6481934C14.3082275,12.7811279,14,13.6019897,14,14.5c0,2.2055664,1.7944336,4,4,4s4-1.7944336,4-4    S20.2055664,10.5,18,10.5z M6,16.5c-1.1030273,0-2-0.8969727-2-2s0.8969727-2,2-2s2,0.8969727,2,2S7.1030273,16.5,6,16.5z     M11.3227539,13.5H9.8579712c-0.1790771-0.6887207-0.5257568-1.3099365-1.010498-1.8024292L9.565918,10.5h2.9567871    L11.3227539,13.5z M18,16.5c-1.1030273,0-2-0.8969727-2-2s0.8969727-2,2-2s2,0.8969727,2,2S19.1030273,16.5,18,16.5z"/><path d="M8,7.5h2c0.5522461,0,1-0.4477539,1-1s-0.4477539-1-1-1H8c-0.5522461,0-1,0.4477539-1,1S7.4477539,7.5,8,7.5z"/></g></g></svg>