<?xml version="1.0" ?><svg style="enable-background:new 0 0 24 24;" version="1.1" viewBox="0 0 24 24" xml:space="preserve" xmlns="http://www.w3.org/2000/svg" xmlns:xlink="http://www.w3.org/1999/xlink"><g id="Guides"/><g id="_x32_0"/><g id="_x31_9"/><g id="_x31_8"/><g id="_x31_7"/><g id="_x31_6"/><g id="_x31_5"/><g id="_x31_4"/><g id="_x31_3"/><g id="_x31_2"/><g id="_x31_1"/><g id="_x31_0"/><g id="_x30_9"/><g id="_x30_8"/><g id="_x30_7"/><g id="_x30_6"/><g id="_x30_5"/><g id="_x30_4"/><g id="_x30_3"/><g id="_x30_2"/><g id="_x30_1"><g><path d="M19.9453125,10.6547852l-0.0991211-0.1992188C19.2924805,9.3398438,19,8.1035156,19,6.8798828V5    c0-1.6542969-1.3457031-3-3-3c-0.8110352,0-1.5664063,0.3168945-2.1083984,0.8740234C13.3168945,3.4345703,13,4.1894531,13,5    v1.8798828c0,0.5826416-0.0714722,1.1578369-0.1976929,1.7227783C11.9259033,8.2158813,10.9800415,8,10,8    c-3.8598633,0-7,3.1401367-7,7s3.1401367,7,7,7c0.5015259,0,0.9891968-0.0712891,1.4667969-0.1756592    C11.6233521,21.9260864,11.7993774,22,12,22h5c2.2055664,0,4-1.7944336,4-4v-2.8798828    C21,13.5898438,20.6352539,12.0458984,19.9453125,10.6547852z M15,5c0-0.2666016,0.1020508-0.5131836,0.3061523-0.7124023    C15.4868164,4.1020508,15.7329102,4,16,4c0.5512695,0,1,0.4487305,1,1v1.8798828C17,7.2532959,17.0232544,7.6274414,17.0661011,8    h-2.1472778C14.9610596,7.6286011,15,7.2564697,15,6.8798828V5z M5,15c0-2.7568359,2.2431641-5,5-5    c1.0253906,0,2.0063477,0.3071289,2.8442383,0.8945313C14.1943359,11.8203125,15,13.3554688,15,15    c0,2.1220703-1.3374023,4.0131836-3.3427734,4.7104492C11.1308594,19.902832,10.5737305,20,10,20C7.2431641,20,5,17.7568359,5,15z     M19,18c0,1.1030273-0.8969727,2-2,2h-2.0996094c0.0290527-0.0285034,0.0541992-0.0605469,0.0827637-0.0895386    c0.0455322-0.0462036,0.0874023-0.0949097,0.1315918-0.142334c0.1871338-0.2008057,0.3624268-0.411377,0.5245361-0.6325073    c0.0317993-0.043335,0.0662842-0.0842896,0.0971069-0.1283569c0.1765137-0.2527466,0.3336792-0.5182495,0.475708-0.7927856    c0.0333862-0.0645142,0.0634155-0.1300659,0.0948486-0.1956787c0.123291-0.2575073,0.2332764-0.5215454,0.324707-0.7940674    c0.0114746-0.0341797,0.0262451-0.0667114,0.0371704-0.1010742c0.0952759-0.2992554,0.1652222-0.6077271,0.2198486-0.9210205    c0.0130615-0.0748901,0.0239868-0.1497192,0.0346069-0.2252808C16.9685669,15.6560669,17,15.3311157,17,15    c0-0.2731323-0.0184326-0.5435181-0.0495605-0.8111572c-0.0103149-0.0884399-0.0292969-0.1745605-0.0429077-0.262207    c-0.0275269-0.1774902-0.0567017-0.3543701-0.0975342-0.5281982c-0.0241699-0.1029053-0.055481-0.2030029-0.0841675-0.3044434    c-0.0438232-0.1547852-0.0894775-0.3084717-0.1437378-0.4594116c-0.0378418-0.1054077-0.0804443-0.208313-0.12323-0.3116455    c-0.0585938-0.1412964-0.1204834-0.2805786-0.1881714-0.4176025c-0.0511475-0.1036987-0.1044922-0.2055054-0.1607056-0.3064575    c-0.0726929-0.1305542-0.1504517-0.2575684-0.2315063-0.3832397c-0.0633545-0.0983276-0.1265259-0.196106-0.1948242-0.2911987    c-0.0878296-0.1222534-0.1824341-0.2391968-0.2782593-0.3557739c-0.072998-0.0888062-0.1435547-0.178894-0.2210693-0.2641602    C15.0883179,10.1987915,14.9846191,10.0999756,14.8817749,10h2.6350708    c0.1507568,0.4588013,0.3225098,0.9111328,0.5378418,1.3452148l0.0991211,0.1992188    C18.7075195,12.6601563,19,13.8964844,19,15.1201172V18z"/><path d="M8.7099609,14.2900391c-0.2802734-0.2700195-0.7202148-0.3603516-1.090332-0.2104492    c-0.1298828,0.050293-0.2299805,0.1201172-0.3295898,0.2104492c-0.090332,0.0996094-0.1601563,0.199707-0.2104492,0.3295898    C7.0297852,14.7397461,7,14.8696289,7,15c0,0.2700195,0.1098633,0.5200195,0.2900391,0.7099609    c0.0996094,0.0898438,0.199707,0.159668,0.3295898,0.2099609C7.7397461,15.9697266,7.8696289,16,8,16    c0.2597656,0,0.5200195-0.1103516,0.7099609-0.2900391C8.75,15.659668,8.7998047,15.6098633,8.8295898,15.5498047    C8.8696289,15.5,8.8999023,15.4399414,8.9199219,15.3798828c0.0297852-0.0600586,0.0498047-0.1201172,0.0600586-0.1801758    C8.9897461,15.1298828,9,15.0698242,9,15c0-0.1303711-0.0302734-0.2602539-0.0800781-0.3803711    C8.8696289,14.5,8.7998047,14.3896484,8.7099609,14.2900391z"/><path d="M12.3798828,15.9199219c0.1201172-0.050293,0.2299805-0.1201172,0.3300781-0.2099609    c0.0400391-0.050293,0.0800781-0.1000977,0.1196289-0.1601563c0.0400391-0.0498047,0.0703125-0.1098633,0.090332-0.1699219    c0.0297852-0.0600586,0.0498047-0.1201172,0.0600586-0.1801758C12.9897461,15.1298828,13,15.0698242,13,15    c0-0.1303711-0.0302734-0.2602539-0.0800781-0.3803711c-0.050293-0.1298828-0.1201172-0.2299805-0.2099609-0.3295898    C12.6098633,14.199707,12.5,14.1298828,12.3798828,14.0795898c-0.3701172-0.159668-0.8100586-0.0595703-1.0898438,0.2104492    c-0.090332,0.0996094-0.1601563,0.199707-0.2104492,0.3295898C11.0297852,14.7397461,11,14.8696289,11,15    c0,0.0698242,0.0097656,0.1298828,0.0200195,0.199707c0.0097656,0.0600586,0.0297852,0.1201172,0.0595703,0.1801758    c0.0200195,0.0600586,0.050293,0.1201172,0.090332,0.1699219c0.0400391,0.0600586,0.0800781,0.1098633,0.1201172,0.1601563    C11.4799805,15.8896484,11.7397461,16,12,16C12.1298828,16,12.2597656,15.9697266,12.3798828,15.9199219z"/><path d="M10.9199219,12.6196289c-0.050293-0.1196289-0.1201172-0.2299805-0.2099609-0.3295898    c-0.1000977-0.090332-0.2001953-0.1601563-0.3300781-0.2104492c-0.3701172-0.159668-0.8100586-0.0698242-1.0898438,0.2104492    C9.199707,12.3896484,9.1298828,12.5,9.0795898,12.6196289C9.0297852,12.7397461,9,12.8696289,9,13    c0,0.0698242,0.0097656,0.1298828,0.0200195,0.199707c0.0097656,0.0600586,0.0297852,0.1201172,0.0595703,0.1801758    C9.0996094,13.4399414,9.1298828,13.5,9.1699219,13.5600586C9.2099609,13.6098633,9.25,13.659668,9.2900391,13.7099609    C9.4799805,13.8896484,9.7397461,14,10,14c0.1298828,0,0.2597656-0.0302734,0.3798828-0.0800781    c0.1298828-0.050293,0.2299805-0.1201172,0.3300781-0.2099609c0.0400391-0.050293,0.0898438-0.1000977,0.1196289-0.1499023    c0.0400391-0.0600586,0.0703125-0.1201172,0.090332-0.1801758c0.0297852-0.0600586,0.0498047-0.1201172,0.0600586-0.1801758    C10.9897461,13.1298828,11,13.0698242,11,13C11,12.8696289,10.9697266,12.7397461,10.9199219,12.6196289z"/></g></g></svg>