<?xml version="1.0" ?><svg style="enable-background:new 0 0 24 24;" version="1.1" viewBox="0 0 24 24" xml:space="preserve" xmlns="http://www.w3.org/2000/svg" xmlns:xlink="http://www.w3.org/1999/xlink"><g id="Guides"/><g id="_x32_0"/><g id="_x31_9"/><g id="_x31_8"/><g id="_x31_7"/><g id="_x31_6"/><g id="_x31_5"/><g id="_x31_4"/><g id="_x31_3"/><g id="_x31_2"/><g id="_x31_1"/><g id="_x31_0"/><g id="_x30_9"/><g id="_x30_8"/><g id="_x30_7"/><g id="_x30_6"/><g id="_x30_5"/><g id="_x30_4"/><g id="_x30_3"/><g id="_x30_2"/><g id="_x30_1"><path d="M20.2929688,18.8789063l1.4140625-1.4140625c0.390625-0.390625,0.390625-1.0234375,0.0009766-1.4140625L21,15.3427734   c-1.3146973-1.3130493-3.3175659-1.5058594-4.8496704-0.6065063L13.4140625,12l8.2929688-8.2929688   c0.390625-0.390625,0.390625-1.0234375,0-1.4140625s-1.0234375-0.390625-1.4140625,0L12,10.5859375L3.7070313,2.2929688   c-0.390625-0.390625-1.0234375-0.390625-1.4140625,0s-0.390625,1.0234375,0,1.4140625L10.5859375,12l-2.7365112,2.7365112   c-1.5331421-0.8995972-3.5355835-0.7069092-4.8504028,0.6062622l-0.7070313,0.7080078   c-0.3896484,0.390625-0.3896484,1.0234375,0.0009766,1.4140625l1.4140625,1.4140625l-1.4140625,1.4140625   c-0.390625,0.390625-0.390625,1.0234375,0,1.4140625C2.4882813,21.9023438,2.7441406,22,3,22   s0.5117188-0.0976563,0.7070313-0.2929688l1.4140625-1.4140625l1.4140625,1.4140625   C6.7304688,21.9023438,6.9863281,22,7.2421875,22s0.5117188-0.0976563,0.7070313-0.2919922L8.6572266,21   c1.3131104-1.3139648,1.5059204-3.3168335,0.6063843-4.8495483L12,13.4140625l2.7363892,2.7363892   c-0.8995361,1.5327759-0.7067261,3.5357666,0.6063843,4.8505249l0.7080078,0.7070313   C16.2460938,21.9023438,16.5019531,22,16.7578125,22s0.5117188-0.0976563,0.7070313-0.2929688l1.4140625-1.4140625   l1.4140625,1.4140625C20.4882813,21.9023438,20.7441406,22,21,22s0.5117188-0.0976563,0.7070313-0.2929688   c0.390625-0.390625,0.390625-1.0234375,0-1.4140625L20.2929688,18.8789063z M7.2431641,19.5849609v0.0009766l-2.8291016-2.8291016   c0.7783203-0.7783203,2.0488281-0.7802734,2.8291016,0C8.0224609,17.5371094,8.0224609,18.8056641,7.2431641,19.5849609z    M16.7568359,19.5859375c-0.7792969-0.7802734-0.7792969-2.0488281,0-2.8291016   c0.3896484-0.3896484,0.9023438-0.5839844,1.4150391-0.5839844c0.5117188,0,1.0244141,0.1943359,1.4130859,0.5839844h0.0009766   L16.7568359,19.5859375z"/></g></svg>