<?xml version="1.0" ?><svg style="enable-background:new 0 0 24 24;" version="1.1" viewBox="0 0 24 24" xml:space="preserve" xmlns="http://www.w3.org/2000/svg" xmlns:xlink="http://www.w3.org/1999/xlink"><g id="Guides"/><g id="_x32_0"/><g id="_x31_9"/><g id="_x31_8"/><g id="_x31_7"/><g id="_x31_6"/><g id="_x31_5"/><g id="_x31_4"/><g id="_x31_3"/><g id="_x31_2"/><g id="_x31_1"/><g id="_x31_0"/><g id="_x30_9"/><g id="_x30_8"/><g id="_x30_7"/><g id="_x30_6"/><g id="_x30_5"/><g id="_x30_4"/><g id="_x30_3"/><g id="_x30_2"/><g id="_x30_1"><g><path d="M3.4999459,2c-0.284668,0-0.5556641,0.1210938-0.7451172,0.3330078    C2.5648873,2.5449219,2.4745553,2.828125,2.5062935,3.1103516l0.3867188,3.4785156    c0.3984375,3.5908203,0.3984375,7.2314453,0,10.8222656l-0.3867188,3.4785156    c-0.0317383,0.2822266,0.0585938,0.5654297,0.2485352,0.7773438C2.9442818,21.8789063,3.2152779,22,3.4999459,22    c4.9624023,0,9-4.0371094,9-9v-2C12.4999456,6.0371094,8.462348,2,3.4999459,2z M10.4999456,13    c0,3.4755859-2.546875,6.3681641-5.8725586,6.9091797l0.2529297-2.2773438c0.4155273-3.7373047,0.4155273-7.5263672,0-11.2636719    L4.627387,4.0908203C7.9530706,4.6318359,10.4999456,7.5244141,10.4999456,11V13z"/><path d="M21.0546341,16.1679688l-2.5546875-1.703125V5.4140625l1.2929688,1.2929688    C19.9882278,6.9023438,20.2440872,7,20.4999466,7s0.5117188-0.0976563,0.7070313-0.2929688    c0.390625-0.390625,0.390625-1.0234375,0-1.4140625l-2.9993286-2.9993286    c-0.0923462-0.0925293-0.203064-0.1658325-0.3258057-0.2166138c-0.2442627-0.1010132-0.5195313-0.1010132-0.7637939,0    c-0.1227417,0.0507813-0.2334595,0.1240845-0.3258057,0.2166138l-2.9993296,2.9993286    c-0.390625,0.390625-0.390625,1.0234375,0,1.4140625C13.9882269,6.9023438,14.2440863,7,14.4999456,7    s0.5117188-0.0976563,0.7070313-0.2929688l1.2929697-1.2929688v9.0507813l-2.5546885,1.703125    C13.6669378,16.3535156,13.4999456,16.6660156,13.4999456,17v4c0,0.3691406,0.203125,0.7080078,0.5283203,0.8818359    C14.1757269,21.9609375,14.3383245,22,14.4999456,22c0.1938477,0,0.387207-0.0566406,0.5546875-0.1679688l2.4453135-1.630188    l2.4453125,1.630188C20.1127396,21.9433594,20.3060989,22,20.4999466,22c0.1616211,0,0.3242188-0.0390625,0.4716797-0.1181641    C21.2968216,21.7080078,21.4999466,21.3691406,21.4999466,21v-4    C21.4999466,16.6660156,21.3329544,16.3535156,21.0546341,16.1679688z M15.4999456,17.5351563l1.000001-0.666687v1.5964966    l-1.000001,0.6668701V17.5351563z M19.4999466,19.1318359l-1-0.6668701v-1.5964966l1,0.666687V19.1318359z"/></g></g></svg>