<?xml version="1.0" ?><svg style="enable-background:new 0 0 24 24;" version="1.1" viewBox="0 0 24 24" xml:space="preserve" xmlns="http://www.w3.org/2000/svg" xmlns:xlink="http://www.w3.org/1999/xlink"><g id="Guides"/><g id="_x32_0"/><g id="_x31_9"/><g id="_x31_8"/><g id="_x31_7"/><g id="_x31_6"/><g id="_x31_5"/><g id="_x31_4"/><g id="_x31_3"/><g id="_x31_2"/><g id="_x31_1"/><g id="_x31_0"/><g id="_x30_9"/><g id="_x30_8"/><g id="_x30_7"/><g id="_x30_6"/><g id="_x30_5"/><g id="_x30_4"/><g id="_x30_3"/><g id="_x30_2"/><g id="_x30_1"><g><path d="M21.8318672,15.944706l-5.9042969-8.8554688L14.9695625,3.257206    c-0.0927734-0.375-0.3935547-0.6621094-0.7714844-0.7382813C13.8152657,2.4466591,13.4305,2.5911903,13.2000313,2.8997841    L10.3118477,6.75037l-7.8417969,4.9013672c-0.2924805,0.1826172-0.4702147,0.5029297-0.4702147,0.8476563v8    c0,0.5527344,0.4477538,1,0.9999999,1h10c0.3212891,0,0.6230469-0.1542969,0.8115234-0.4150391    c0.1875-0.2607422,0.2392578-0.5966797,0.1367188-0.9013672l-0.8681641-2.6064453l0.3310547-0.6640625l4.0742188,2.4443359    c0.3320313,0.2001953,0.7460938,0.1875,1.0693359-0.0253906l3-2    C22.0144844,17.0247841,22.1385078,16.4046669,21.8318672,15.944706z M11.5296211,8.3470497    c0.1044922-0.0654297,0.1962891-0.1494141,0.2700195-0.2480469l1.7392578-2.3183594l0.4912109,1.9609375    c0.0273438,0.1113281,0.0742188,0.2167969,0.1376953,0.3125l3.4754639,5.2131958l-2.8533936,2.1400757l-1.2062988-0.723938    l-5.2252197-4.3539429L11.5296211,8.3470497z M5.1277046,12.3490028l0.6914673,4.1503906H3.9998357V13.054081    L5.1277046,12.3490028z M3.9998357,19.4993935v-1H6.999836c0.2939453,0,0.5732422-0.1289063,0.7631836-0.3535156    S8.0345039,17.62537,7.9861641,17.335331l-0.9119873-5.4719849l4.6768188,3.8973389l-0.6456909,1.2914429    c-0.1186523,0.2373047-0.1381836,0.5117188-0.0541992,0.7636719l0.5615234,1.6835938H3.9998357z M17.9715157,17.3167763    l-1.3306885-0.798584l2.1131592-1.5848999l0.8591309,1.2887573L17.9715157,17.3167763z"/><path d="M13.289875,11.2093544c0.0996094,0.0898438,0.2099609,0.1601563,0.3300781,0.2099609s0.25,0.0800781,0.3798828,0.0800781    c0.2695313,0,0.5195313-0.1005859,0.7099609-0.2900391c0.0898438-0.1005859,0.1601563-0.2099609,0.2099609-0.3300781    s0.0800781-0.25,0.0800781-0.3798828c0-0.2597656-0.1103516-0.5205078-0.2900391-0.7099609    c-0.0498047-0.0400391-0.1005859-0.0898438-0.1503906-0.1201172c-0.0595703-0.0400391-0.1201172-0.0703125-0.1796875-0.0898438    c-0.0605469-0.0302734-0.1201172-0.0498047-0.1904297-0.0605469c-0.3193359-0.0595703-0.6699219,0.0400391-0.8994141,0.2705078    c-0.1806641,0.1894531-0.2900391,0.4501953-0.2900391,0.7099609c0,0.1298828,0.0195313,0.2597656,0.0800781,0.3798828    C13.1297188,10.9993935,13.2000313,11.1087685,13.289875,11.2093544z"/></g></g></svg>