<?xml version="1.0" ?><svg style="enable-background:new 0 0 24 24;" version="1.1" viewBox="0 0 24 24" xml:space="preserve" xmlns="http://www.w3.org/2000/svg" xmlns:xlink="http://www.w3.org/1999/xlink"><g id="Guides"/><g id="_x32_0"/><g id="_x31_9"/><g id="_x31_8"/><g id="_x31_7"/><g id="_x31_6"/><g id="_x31_5"/><g id="_x31_4"/><g id="_x31_3"/><g id="_x31_2"/><g id="_x31_1"/><g id="_x31_0"/><g id="_x30_9"/><g id="_x30_8"/><g id="_x30_7"/><g id="_x30_6"/><g id="_x30_5"/><g id="_x30_4"/><g id="_x30_3"/><g id="_x30_2"/><g id="_x30_1"><path d="M21.0000343,6.5h-3v-1c0-0.5527344-0.4477539-1-1-1s-1,0.4472656-1,1v1h-4h-7h-1c0-0.5527344-0.4477541-1-1.0000002-1   s-1,0.4472656-1,1v1c0,0.5527344,0.4477539,1,1,1h0.8018188l-1.7857056,9.8212891   c-0.0532227,0.2919922,0.0263672,0.5917969,0.2163086,0.8193359S2.7036474,19.5,3.0000341,19.5h5   c0.4887695,0,0.90625-0.3535156,0.9863281-0.8359375L9.3470802,16.5h2.6529541c0.4306641,0,0.8125-0.2753906,0.9487305-0.6835938   L13.7209206,13.5h7.2791138c0.5522461,0,1-0.4472656,1-1v-5C22.0000343,6.9472656,21.5522804,6.5,21.0000343,6.5z M11.2793312,14.5   H9.6805153l0.166687-1h1.7653809L11.2793312,14.5z M20.0000343,11.5h-11c-0.4887695,0-0.90625,0.3535156-0.9863281,0.8359375   L7.1528664,17.5H4.1982765l1.6362305-9h6.1655273h5h3V11.5z"/></g></svg>