<?xml version="1.0" ?><svg style="enable-background:new 0 0 24 24;" version="1.1" viewBox="0 0 24 24" xml:space="preserve" xmlns="http://www.w3.org/2000/svg" xmlns:xlink="http://www.w3.org/1999/xlink"><g id="Guides"/><g id="_x32_0"/><g id="_x31_9"/><g id="_x31_8"/><g id="_x31_7"/><g id="_x31_6"/><g id="_x31_5"/><g id="_x31_4"/><g id="_x31_3"/><g id="_x31_2"/><g id="_x31_1"/><g id="_x31_0"/><g id="_x30_9"/><g id="_x30_8"/><g id="_x30_7"/><g id="_x30_6"/><g id="_x30_5"/><g id="_x30_4"/><g id="_x30_3"/><g id="_x30_2"/><g id="_x30_1"><path d="M12,10V7c0-0.5522461-0.4477539-1-1-1s-1,0.4477539-1,1v1H7V7c0-0.5522461-0.4477539-1-1-1S5,6.4477539,5,7v4.0474243   C2.5471802,11.9343262,2,13.1233521,2,14c0,2.7480469,5.1835938,4,10,4s10-1.2519531,10-4S16.8164063,10,12,10z M10,10v1H7v-1H10z    M12,16c-5.2495117,0-8-1.4858398-8-2c0-0.0703125,0.2016602-0.4047852,1-0.7915039V14c0,0.5522461,0.4477539,1,1,1   s1-0.4477539,1-1v-1h3v1c0,0.5522461,0.4477539,1,1,1s1-0.4477539,1-1v-2c5.2490234,0,8,1.4858398,8,2S17.2490234,16,12,16z"/></g></svg>