<?xml version="1.0" ?><svg style="enable-background:new 0 0 24 24;" version="1.1" viewBox="0 0 24 24" xml:space="preserve" xmlns="http://www.w3.org/2000/svg" xmlns:xlink="http://www.w3.org/1999/xlink"><g id="Guides"/><g id="_x32_0"/><g id="_x31_9"/><g id="_x31_8"/><g id="_x31_7"/><g id="_x31_6"/><g id="_x31_5"/><g id="_x31_4"/><g id="_x31_3"/><g id="_x31_2"/><g id="_x31_1"/><g id="_x31_0"/><g id="_x30_9"/><g id="_x30_8"/><g id="_x30_7"/><g id="_x30_6"/><g id="_x30_5"/><g id="_x30_4"/><g id="_x30_3"/><g id="_x30_2"/><g id="_x30_1"><path d="M20,9.9996681c0-0.2633667-0.0126953-0.5248413-0.0377808-0.7836914   c-0.1506348-1.5541992-0.7481079-3.013916-1.7265015-4.22229c-0.1636963-0.2023926-0.3380127-0.3979492-0.5228271-0.5858154   c-0.0013428-0.0013428-0.0033569-0.00177-0.0046997-0.0031128C16.2224731,2.8764379,14.1430664,1.999668,12,1.999668   c-2.1474609,0-4.2314453,0.8798827-5.7128906,2.4082031C4.8125,5.9068947,4,7.8927345,4,9.9996681c-1.1025391,0-2,0.8969727-2,2v1   c0,1.1030273,0.8974609,2,2,2h0.2460938l1.7919922,6.2749023c0.1523438,0.5322266,0.7109375,0.8393555,1.2363281,0.6865234   c0.53125-0.1518555,0.8388672-0.7050781,0.6875-1.2363281l-0.4928589-1.7250977h1.2347412l0.3059692,2.1416016   c0.0712891,0.4985352,0.4990234,0.8583984,0.9892578,0.8583984c0.046875,0,0.0947266-0.003418,0.1425781-0.0102539   c0.546875-0.078125,0.9267578-0.5844727,0.8486328-1.1313477l-0.2655029-1.8583984h2.5505371l-0.2655029,1.8583984   c-0.078125,0.546875,0.3017578,1.0532227,0.8486328,1.1313477c0.0478516,0.0068359,0.0957031,0.0102539,0.1425781,0.0102539   c0.4902344,0,0.9179688-0.3598633,0.9892578-0.8583984l0.3059692-2.1416016h1.2347412l-0.4928589,1.7250977   c-0.1513672,0.53125,0.15625,1.0844727,0.6875,1.2363281c0.0917969,0.0263672,0.1835938,0.0390625,0.2753906,0.0390625   c0.4345703-0.0004883,0.8349609-0.2866211,0.9609375-0.7255859l1.7919922-6.2749023H20c1.1025391,0,2-0.8969727,2-2v-1   C22,10.8966408,21.1025391,9.9996681,20,9.9996681z M10,9.9996681c0-1.7498169-0.567749-3.4115601-1.602417-4.7848511   C9.1601563,4.6391945,10.0545044,4.2527199,11,4.0912209v5.9084473H10z M13,4.0912209   c0.9443359,0.161377,1.8381348,0.5477295,2.6019287,1.1243896C14.567688,6.5887184,14,8.2502174,14,9.9996681h-1V4.0912209z    M16.9990234,6.6874123c0.0026855,0.0040283,0.0059204,0.0077515,0.008606,0.0117798   c0.1425171,0.2142944,0.2661743,0.4390259,0.3790283,0.6686401c0.0280151,0.0569458,0.0543213,0.1146851,0.0805054,0.1724854   c0.1013794,0.2243652,0.192627,0.453186,0.2653809,0.6888428c0.0038452,0.0123901,0.0092163,0.024353,0.0130005,0.0368042   c0.0742798,0.2463989,0.1271362,0.4997559,0.1691284,0.7557373c0.0103149,0.0632324,0.0194702,0.126709,0.027771,0.1903687   C17.9764404,9.4715919,18,9.7336769,18,9.9996681h-2C16,8.8035622,16.3493652,7.6597633,16.9990234,6.6874123z    M6.0576172,9.2117653c0.0083618-0.0636597,0.0174561-0.1271362,0.027832-0.1903076   c0.0418701-0.2555542,0.0946655-0.5084839,0.1687622-0.7544556c0.0043335-0.0144653,0.0106812-0.0282593,0.0151367-0.0426636   c0.0720215-0.2325439,0.1620483-0.4585571,0.2620239-0.6801147c0.0273438-0.0606079,0.0550537-0.1209717,0.0844727-0.1806641   c0.1120605-0.227478,0.234314-0.4501343,0.3754883-0.6625977C6.9943237,6.6963844,6.9981079,6.692173,7.0010986,6.6876564   C7.6506958,7.6599464,8,8.8036842,8,9.9996681H6C6,9.7336159,6.0235596,9.4713478,6.0576172,9.2117653z M7,16.9996681   c-0.0343628,0-0.0633545,0.0161743-0.0968018,0.0195313l-0.5770264-2.0195313h1.8062134l0.2857056,2H7z M10.4390259,16.9996681   l-0.2857056-2h3.6933594l-0.2857056,2H10.4390259z M17,16.9996681h-1.4180908l0.2857056-2h1.8062134l-0.5770264,2.0195313   C17.0633545,17.0158424,17.0343628,16.9996681,17,16.9996681z M20,12.9996681h-1H5H4v-1h1.0800781h3.8398438h6.1601563h3.8398438   H20V12.9996681z"/></g></svg>