<?xml version="1.0" ?><svg style="enable-background:new 0 0 24 24;" version="1.1" viewBox="0 0 24 24" xml:space="preserve" xmlns="http://www.w3.org/2000/svg" xmlns:xlink="http://www.w3.org/1999/xlink"><g id="Guides"/><g id="_x32_0"/><g id="_x31_9"/><g id="_x31_8"/><g id="_x31_7"/><g id="_x31_6"/><g id="_x31_5"/><g id="_x31_4"/><g id="_x31_3"/><g id="_x31_2"/><g id="_x31_1"/><g id="_x31_0"/><g id="_x30_9"/><g id="_x30_8"/><g id="_x30_7"/><g id="_x30_6"/><g id="_x30_5"/><g id="_x30_4"/><g id="_x30_3"/><g id="_x30_2"/><g id="_x30_1"><g><path d="M21,19.9938965h-7.5229492C13.8218994,18.5369263,14,17.029541,14,15.4938965    c0-5.0078125-1.9282227-9.8203125-5.2905273-13.2050781c-0.3759766-0.3769531-1.0429688-0.3769531-1.4189453,0    C3.9282227,5.673584,2,10.486084,2,15.4938965c0,1.9970703,0.2949219,3.9482422,0.8759766,5.7998047    c0.0056152,0.0178833,0.0180054,0.0315552,0.0245361,0.0489502c0.0148926,0.0395508,0.0357666,0.0735474,0.0552979,0.1105347    c0.0372314,0.0708008,0.0792236,0.1356201,0.1311646,0.194519c0.027832,0.0316772,0.0556641,0.0601196,0.0872803,0.0880127    c0.0609741,0.053833,0.1275024,0.0969238,0.199707,0.1345215c0.0339355,0.0177612,0.06427,0.0380859,0.1003418,0.0518799    c0.1121826,0.0430298,0.2304688,0.0717773,0.3557739,0.0717773h8.3398438H21c0.5522461,0,1-0.4472656,1-1    S21.5522461,19.9938965,21,19.9938965z M4.5810547,19.9938965C4.1953125,18.5476074,4,17.0368652,4,15.4938965    C4,11.3776855,5.4467773,7.416748,8,4.4645996c2.5532227,2.9521484,4,6.9130859,4,11.0292969    c0,1.5429688-0.1953125,3.0537109-0.5810547,4.5H4.5810547z"/><path d="M8,8.9938965c-0.5522461,0-1,0.4472656-1,1v3c0,0.5527344,0.4477539,1,1,1s1-0.4472656,1-1v-3    C9,9.4411621,8.5522461,8.9938965,8,8.9938965z"/><path d="M21,16.9938965c-0.8994141,0-1.2875977-0.3105469-1.8754883-0.78125    c-0.6787109-0.5429688-1.5239258-1.21875-3.1245117-1.21875c-0.5522461,0-1,0.4472656-1,1s0.4477539,1,1,1    c0.8994141,0,1.2875977,0.3105469,1.8754883,0.78125c0.6787109,0.5429688,1.5239258,1.21875,3.1245117,1.21875    c0.5522461,0,1-0.4472656,1-1S21.5522461,16.9938965,21,16.9938965z"/><path d="M21,12.9938965c-0.8994141,0-1.2875977-0.3105469-1.8754883-0.78125    c-0.6787109-0.5429688-1.5239258-1.21875-3.1245117-1.21875c-0.5522461,0-1,0.4472656-1,1s0.4477539,1,1,1    c0.8994141,0,1.2875977,0.3105469,1.8754883,0.78125c0.6787109,0.5429688,1.5239258,1.21875,3.1245117,1.21875    c0.5522461,0,1-0.4472656,1-1S21.5522461,12.9938965,21,12.9938965z"/><path d="M16,8.9938965c0.8994141,0,1.2875977,0.3105469,1.8754883,0.78125    c0.6787109,0.5429688,1.5239258,1.21875,3.1245117,1.21875c0.5522461,0,1-0.4472656,1-1s-0.4477539-1-1-1    c-0.8994141,0-1.2875977-0.3105469-1.8754883-0.78125C18.4458008,7.6696777,17.6005859,6.9938965,16,6.9938965    c-0.5522461,0-1,0.4472656-1,1S15.4477539,8.9938965,16,8.9938965z"/></g></g></svg>