<?xml version="1.0" ?><svg style="enable-background:new 0 0 24 24;" version="1.1" viewBox="0 0 24 24" xml:space="preserve" xmlns="http://www.w3.org/2000/svg" xmlns:xlink="http://www.w3.org/1999/xlink"><g id="Guides"/><g id="_x32_0"/><g id="_x31_9"/><g id="_x31_8"/><g id="_x31_7"/><g id="_x31_6"/><g id="_x31_5"/><g id="_x31_4"/><g id="_x31_3"/><g id="_x31_2"/><g id="_x31_1"/><g id="_x31_0"/><g id="_x30_9"/><g id="_x30_8"/><g id="_x30_7"/><g id="_x30_6"/><g id="_x30_5"/><g id="_x30_4"/><g id="_x30_3"/><g id="_x30_2"/><g id="_x30_1"><path d="M20,6h-3V5c0-0.5527344-0.4477539-1-1-1s-1,0.4472656-1,1v1H9V5c0-0.5527344-0.4477539-1-1-1S7,4.4472656,7,5v1H4   C2.8969727,6,2,6.8974609,2,8v3c0,1.1025391,0.8969727,2,2,2h2.6744385l-1.6358643,5.7255859   c-0.1518555,0.5302734,0.1557617,1.0839844,0.6865234,1.2363281C5.8168945,19.9873047,5.909668,20,6.0004883,20   c0.4350586,0,0.8354492-0.2861328,0.9609375-0.7255859L7.6112671,17h8.7774658l0.6498413,2.2744141   C17.1640625,19.7138672,17.5644531,20,17.9995117,20c0.0908203,0,0.1835938-0.0126953,0.2753906-0.0380859   c0.5307617-0.1523438,0.8383789-0.7060547,0.6865234-1.2363281L17.3255615,13H20c1.1030273,0,2-0.8974609,2-2V8   C22,6.8974609,21.1030273,6,20,6z M15.8173218,15H8.1826782l0.5714111-2h6.4918213L15.8173218,15z M4,11V8h16l0.0014648,3H4z"/></g></svg>