<?xml version="1.0" ?><svg style="enable-background:new 0 0 24 24;" version="1.1" viewBox="0 0 24 24" xml:space="preserve" xmlns="http://www.w3.org/2000/svg" xmlns:xlink="http://www.w3.org/1999/xlink"><g id="Guides"/><g id="_x32_0"/><g id="_x31_9"/><g id="_x31_8"/><g id="_x31_7"/><g id="_x31_6"/><g id="_x31_5"/><g id="_x31_4"/><g id="_x31_3"/><g id="_x31_2"/><g id="_x31_1"/><g id="_x31_0"/><g id="_x30_9"/><g id="_x30_8"/><g id="_x30_7"/><g id="_x30_6"/><g id="_x30_5"/><g id="_x30_4"/><g id="_x30_3"/><g id="_x30_2"/><g id="_x30_1"><path d="M20.7973022,6.9008036c-0.0244141-0.0336914-0.0517578-0.0649414-0.0810547-0.0947266   c-0.6210938-0.8027344-1.4511719-1.4394531-2.4130859-1.847168c-3.0439463-1.2719724-6.5654306,0.1806641-7.8466806,3.2348633   c-0.2130127,0.5058594-0.3485718,1.0375366-0.4135742,1.5777588L9.284606,9.54387   C9.09027,9.4857645,8.878356,9.4886942,8.6820669,9.5531473l-2.6835933,0.8945313l-2.683594-0.8945313   C3.0092156,9.4525614,2.6752312,9.5018778,2.4135125,9.6908426c-0.2607422,0.1879883-0.4150391,0.4897461-0.4150391,0.8110352v5   c0,1.3019419,0.838501,2.4015512,2,2.8156748v0.1843262c0,0.5522461,0.4472659,1,1.0000002,1s1-0.4477539,1-1h1   c0,0.5522461,0.4472656,1,1,1s0.9999995-0.4477539,0.9999995-1h1c0,0.5522461,0.4472656,1,1,1s1-0.4477539,1-1h1   c0,0.5522461,0.4472656,1,1,1s1-0.4477539,1-1h1c0,0.5522461,0.4472666,1,1.000001,1s1-0.4477539,1-1v-0.1223755   c1.1513672-0.3359985,2-1.3890991,2-2.647645c0-0.2432251-0.0250244-0.4807739-0.0670776-0.7123413   c0.6860352-0.5923462,1.2380981-1.3397827,1.6071167-2.2056274c0.0009766-0.0019531,0.0009766-0.003418,0.0019531-0.0048828   C22.3588257,10.8617411,22.0736694,8.5980692,20.7973022,6.9008036z M18.7044678,12.7961283   c-0.0938721-0.0863037-0.1929321-0.1647339-0.2938232-0.2412109c-0.0596924-0.0452881-0.1173096-0.0928955-0.1793213-0.1346436   c-0.0802612-0.0540161-0.1644897-0.1008301-0.2484131-0.1488037c0.3790894-0.0723877,0.8776855-0.0546265,1.5206909,0.1342773   c-0.1397095,0.2540894-0.2942505,0.4963989-0.4787598,0.7098999c-0.0470581-0.0539551-0.1011963-0.0991211-0.1506348-0.1502075   C18.8184204,12.9077005,18.7631836,12.8500834,18.7044678,12.7961283z M15.5509024,11.4242411l-0.4483643-0.1348267   c0.4163208-1.2374268,1.4058237-2.6239624,4.3634043-2.7711792c0.3425293,0.5973511,0.5231323,1.2669678,0.5314941,1.9429321   C17.7677612,9.8308573,16.2980957,10.60991,15.5509024,11.4242411z M12.300231,8.9691629   c0.8516235-2.0289917,3.1781006-2.9966431,5.1926889-2.1775513c-2.5838633,0.6560059-3.7714853,2.3309326-4.3025522,3.9227295   l-1.1918945-0.3584595C12.012145,9.8812723,12.1146841,9.4110575,12.300231,8.9691629z M17.2289429,16.5018787H4.9984736   c-0.5517578,0-1.0000002-0.4487305-1.0000002-1.000001v-3.612793l1.683594,0.5615234   c0.2050781,0.0683594,0.4277344,0.0683594,0.6328125,0l2.7001948-0.8999023l7.5595713,2.2695313   c0.4101563,0.1220703,0.7695313,0.3735352,1.0390625,0.7280273c0.0859375,0.1132813,0.1660156,0.2646484,0.25,0.4736328   c0.0898438,0.2182617,0.1347656,0.4570313,0.1347656,0.7099609C17.9984741,16.1566639,17.6537476,16.5018787,17.2289429,16.5018787   z"/></g></svg>