<?xml version="1.0" ?><svg style="enable-background:new 0 0 24 24;" version="1.1" viewBox="0 0 24 24" xml:space="preserve" xmlns="http://www.w3.org/2000/svg" xmlns:xlink="http://www.w3.org/1999/xlink"><g id="Guides"/><g id="_x32_0"/><g id="_x31_9"/><g id="_x31_8"/><g id="_x31_7"/><g id="_x31_6"/><g id="_x31_5"/><g id="_x31_4"/><g id="_x31_3"/><g id="_x31_2"/><g id="_x31_1"/><g id="_x31_0"/><g id="_x30_9"/><g id="_x30_8"/><g id="_x30_7"/><g id="_x30_6"/><g id="_x30_5"/><g id="_x30_4"/><g id="_x30_3"/><g id="_x30_2"/><g id="_x30_1"><path d="M21.9760685,11.5348835c0.0010376-0.0305176-0.0025024-0.0593262-0.0042725-0.0898438   c-0.0879517-1.6073608-0.560791-3.1929932-1.4188232-4.6140137c-0.0046387-0.0115967-0.0140381-0.0209961-0.019104-0.0324097   c-0.4054565-0.6658325-0.8852539-1.2987061-1.4603882-1.8738403c-0.5743408-0.5743408-1.2063599-1.0535889-1.8712769-1.4586792   c-0.0124512-0.0055542-0.0227661-0.0158691-0.0354614-0.0209351C13.322443,1.1249104,8.2448673,1.6108112,4.930902,4.9247761   c-3.3150024,3.3150024-3.8008423,8.3917847-1.4794922,12.2363281c0.0046387,0.0115967,0.0140381,0.0209961,0.019104,0.0324097   c0.4054565,0.6658325,0.8852539,1.2987061,1.4603882,1.8738403c0.5748291,0.5748291,1.2075195,1.0544434,1.8731079,1.4598999   c0.0117798,0.005249,0.0213623,0.0148926,0.0332642,0.0196533c1.4214482,0.8582153,3.007813,1.3312378,4.61554,1.4190674   c0.0184326,0.0010376,0.0358276,0.0105591,0.0542603,0.0105591c0.0111694,0,0.0217285-0.0060425,0.0328979-0.0064087   c0.1541138,0.0070801,0.3079834,0.0220337,0.4622192,0.0220337c2.5605469,0,5.1220703-0.9755859,7.0712891-2.9248047   C21.1403751,17.0004597,22.100275,14.2472858,21.9760685,11.5348835z M11.1287174,19.9408283   c-0.7674561-0.0836182-1.5239258-0.2780151-2.2455444-0.5825806L19.3643742,8.8770466   c0.3045654,0.7216187,0.4989624,1.4780884,0.5825806,2.2455444L11.1287174,19.9408283z M6.3449645,17.6532917   c-0.2401123-0.2401123-0.4552002-0.4951782-0.6583252-0.7567139L16.9027653,5.6804523   c0.2615356,0.203125,0.5165405,0.4182739,0.7566528,0.6583862s0.4552612,0.4951172,0.6583862,0.7566528L7.1016784,18.3116169   C6.8401427,18.1084919,6.5850768,17.893404,6.3449645,17.6532917z M4.038568,11.3039265l2.2062988,2.2062988l-1.6048584,1.6048584   C4.1289611,13.9043293,3.927484,12.5939655,4.038568,11.3039265z M9.2951603,4.7030964l2.878418,2.878418l-1.500061,1.500061   L7.1996398,5.6084919c0.6143188-0.4623413,1.2781377-0.826416,1.9739385-1.088501   C9.2126408,4.5820637,9.2410831,4.6490192,9.2951603,4.7030964z M15.1213932,4.6336994l-1.5337524,1.5337524L11.445673,4.0254841   c0.1853638-0.0128174,0.3707886-0.0264893,0.5565186-0.0264893C13.0652409,3.9989948,14.1267033,4.2137165,15.1213932,4.6336994z    M5.7593932,6.9963703l3.5000615,3.4992676l-1.6005254,1.6005249L4.5791564,9.0163898   C4.8650451,8.3011799,5.2591491,7.6201496,5.7593932,6.9963703z M17.6594181,17.6532917   c-0.9909668,0.9909668-2.1801147,1.6643066-3.4406738,2.0256348l5.4663086-5.4663086   C19.3237247,15.473177,18.6503849,16.6623249,17.6594181,17.6532917z"/></g></svg>