<?xml version="1.0" ?><svg style="enable-background:new 0 0 24 24;" version="1.1" viewBox="0 0 24 24" xml:space="preserve" xmlns="http://www.w3.org/2000/svg" xmlns:xlink="http://www.w3.org/1999/xlink"><g id="Guides"/><g id="_x32_0"/><g id="_x31_9"/><g id="_x31_8"/><g id="_x31_7"/><g id="_x31_6"/><g id="_x31_5"/><g id="_x31_4"/><g id="_x31_3"/><g id="_x31_2"/><g id="_x31_1"/><g id="_x31_0"/><g id="_x30_9"/><g id="_x30_8"/><g id="_x30_7"/><g id="_x30_6"/><g id="_x30_5"/><g id="_x30_4"/><g id="_x30_3"/><g id="_x30_2"/><g id="_x30_1"><g><path d="M22,12c0-2.7568359-2.2431641-5-5-5c0-2.7568359-2.2431641-5-5-5S7,4.2431641,7,7c-2.7568359,0-5,2.2431641-5,5    c0,2.4404297,1.7600708,4.4708862,4.0759888,4.9065552C6.5152588,19.7853394,9.0003052,22,12,22    s5.4847412-2.2146606,5.9240112-5.0934448C20.2399292,16.4708862,22,14.4404297,22,12z M12,4c1.6542969,0,3,1.3457031,3,3    c0,0.1484375-0.0097656,0.2919922-0.0302734,0.4335938c-0.0015869,0.0007324-0.0029297,0.0018311-0.0045166,0.0025635    c-0.25354,0.1132813-0.4914551,0.2526245-0.7203979,0.4048462c-0.0529175,0.0351563-0.1043701,0.0709839-0.1558228,0.1080933    c-0.222229,0.1603394-0.4354858,0.3323364-0.628479,0.5269775c-0.0036621,0.0037231-0.0067139,0.0079956-0.010376,0.0117188    c-0.1882324,0.1911011-0.355835,0.4022827-0.5123291,0.6228027c-0.0385132,0.0541992-0.0760498,0.1080933-0.1124878,0.1640015    c-0.1498413,0.2297363-0.2869873,0.4691162-0.3998413,0.7246094c-0.0022583,0.005127-0.0057373,0.0093384-0.0079956,0.0144653    c-0.1090088-0.006958-0.2196655-0.0092773-0.3305054-0.0108032c-0.0578003-0.0007935-0.1154785-0.0008545-0.1733398,0    c-0.1099243,0.0015259-0.2194824,0.0038452-0.3276978,0.0108032c-0.0033569-0.0077515-0.008667-0.0142822-0.0120239-0.0219727    c-0.111145-0.2532959-0.2462158-0.4919434-0.3956299-0.7207031c-0.0343628-0.0526123-0.0702515-0.1030884-0.1065063-0.1542969    c-0.1537476-0.2171631-0.3192139-0.4248047-0.5047607-0.6141357c-0.0073853-0.0074463-0.0134888-0.0161133-0.020874-0.0235596    c-0.1940308-0.1955566-0.4083862-0.3689575-0.6325684-0.5302734C9.8641968,7.913269,9.8148193,7.8790283,9.7641602,7.8453369    C9.5327759,7.6913452,9.2920532,7.5505371,9.0353394,7.4361572C9.0337524,7.4354248,9.0323486,7.4343262,9.0307617,7.4335938    C9.0102539,7.2919922,9,7.1484375,9,7C9,5.3457031,10.3457031,4,12,4z M4,12c0-1.6542969,1.3457031-3,3-3    c0.3076172,0,0.5952148,0.0439453,0.8837891,0.1347656c0.215271,0.0667725,0.4160156,0.1628418,0.6070557,0.2728271    c0.0566406,0.0325928,0.1088867,0.071228,0.1630859,0.1073608c0.131897,0.0878906,0.2564697,0.1848755,0.3723755,0.2918091    c0.0507202,0.046814,0.1013794,0.0934448,0.1486816,0.1436157c0.119812,0.1271362,0.2271729,0.2653198,0.3233643,0.4118652    c0.0244141,0.0371704,0.0542603,0.0703125,0.0770264,0.1086426c0.0061646,0.010437,0.0088501,0.0228882,0.0149536,0.0333862    c-0.2533569,0.1121216-0.4943237,0.2453003-0.7272949,0.3900757c-0.0615234,0.038147-0.1184082,0.081543-0.1784058,0.1218872    c-0.1947632,0.1310425-0.3809204,0.2721558-0.5584106,0.4241943c-0.0650635,0.0556641-0.1298828,0.1102295-0.1924438,0.1685791    c-0.2138062,0.1993408-0.4175415,0.4088135-0.6003418,0.6364136c-0.0041504,0.005127-0.0088501,0.0097656-0.0129395,0.0149536    c-0.1842041,0.2307739-0.3452148,0.4786987-0.4943848,0.7341309c-0.0432739,0.0740967-0.0822144,0.1497803-0.1223755,0.225769    c-0.1087036,0.2055664-0.2049561,0.4170532-0.2896118,0.6347656c-0.0268555,0.0690308-0.0571899,0.1357422-0.0814819,0.2058716    c-0.0908813,0.2620239-0.1688843,0.5292358-0.2227783,0.8043213C4.8891602,14.4853516,4,13.3447266,4,12z M12,20    c-2.2055664,0-4-1.7939453-4-4c0-0.4643555,0.0819702-0.9152222,0.2331543-1.3366699    c0.3023682-0.8427734,0.8815308-1.5678711,1.6356201-2.0476685c0.37677-0.239624,0.7971802-0.4179688,1.2484131-0.5189819    C11.4082031,12.03125,11.6967773,12,12,12s0.5917969,0.03125,0.8808594,0.0957031C14.6884766,12.5009766,16,14.1425781,16,16    C16,18.2060547,14.2060547,20,12,20z M17.8896484,14.8652344c-0.0536499-0.2741699-0.1312256-0.5405884-0.2216187-0.8018188    c-0.0252075-0.0727539-0.0565796-0.1419067-0.0844727-0.213501c-0.0838013-0.2150269-0.178833-0.4240112-0.2860718-0.6271362    c-0.0408936-0.0775146-0.0806274-0.1547241-0.1248169-0.2302856c-0.147522-0.2525024-0.3069458-0.4973755-0.4887695-0.725769    c-0.0079346-0.0099487-0.0165405-0.019165-0.0245361-0.0291138c-0.1804199-0.2237549-0.3806152-0.4301147-0.5909424-0.6264648    c-0.0646362-0.0603638-0.1317749-0.1167603-0.1990967-0.1742554c-0.1738892-0.1486816-0.3560791-0.2866211-0.5465698-0.4151001    c-0.0639038-0.0430298-0.1246338-0.0892334-0.1903076-0.1298828c-0.2315674-0.1434937-0.4710693-0.2754517-0.7228394-0.3867188    c0.0059814-0.0103149,0.008667-0.022644,0.0148315-0.032959c0.022644-0.0380249,0.0521851-0.0708008,0.076416-0.107666    c0.0961914-0.1467285,0.2034912-0.2849121,0.3231201-0.4120483c0.0487061-0.0517578,0.1010132-0.0997925,0.1533203-0.1479492    c0.1135864-0.1046753,0.2356567-0.199646,0.364624-0.2859497c0.0568237-0.0380249,0.1117554-0.0784302,0.1713257-0.1126709    c0.1854858-0.1065063,0.3804932-0.1989746,0.5887451-0.2647705c0.007019-0.0021973,0.0130615-0.0061646,0.0200806-0.0083618    C16.4052734,9.0439453,16.6923828,9,17,9c1.6542969,0,3,1.3457031,3,3C20,13.3447266,19.1113281,14.4853516,17.8896484,14.8652344    z"/><path d="M12.9199219,15.6201172c-0.0200195-0.0605469-0.050293-0.1201172-0.090332-0.1806641    c-0.0395508-0.0498047-0.0795898-0.0996094-0.1196289-0.1494141c-0.2802734-0.2802734-0.7299805-0.3603516-1.090332-0.2099609    C11.5,15.1298828,11.3896484,15.2001953,11.2900391,15.2900391C11.1098633,15.4794922,11,15.7402344,11,16    c0,0.1298828,0.0297852,0.2597656,0.0795898,0.3798828C11.1298828,16.5,11.199707,16.609375,11.2900391,16.7099609    C11.4799805,16.8994141,11.7299805,17,12,17c0.1298828,0,0.2597656-0.0302734,0.3798828-0.0800781    s0.2299805-0.1201172,0.3300781-0.2099609c0.0898438-0.1005859,0.159668-0.2099609,0.2099609-0.3300781    C12.9799805,16.2597656,13,16.1298828,13,16c0-0.0605469-0.0102539-0.1298828-0.0200195-0.1904297    C12.9697266,15.7402344,12.949707,15.6796875,12.9199219,15.6201172z"/></g></g></svg>